<svg id="Layer_1" data-name="Layer 1" xmlns="http://www.w3.org/2000/svg" viewBox="0 0 1000 1000"><defs><style>.cls-1{fill:#da2a34;}.cls-2{fill:#fbb03b;}.cls-3{fill:#1e2cb1;}</style></defs><title>iic</title><path class="cls-1" d="M602.43,906a173.27,173.27,0,0,0,37.41-4.06A221.17,221.17,0,0,1,495.7,955C373.05,955,273.64,855.61,273.64,733S373.05,510.9,495.7,510.9a221.22,221.22,0,0,1,144.14,53.15A173,173,0,1,0,602.43,906Z"/><path class="cls-2" d="M419.38,497.85c-110.95-8-186.44-33.4-214.69-261.15C210,263,241.13,331.72,472.89,356c286,30,253.29,376.93,253.29,376.93C701.72,679.74,672.37,516,419.38,497.85Z"/><path class="cls-3" d="M580.62,497.85c111-8,186.44-33.4,214.69-261.15-5.26,26.27-36.44,95-268.2,119.34C241.11,386.06,273.82,733,273.82,733,298.28,679.74,327.63,516,580.62,497.85Z"/><circle class="cls-2" cx="204.69" cy="144.21" r="80.25"/><circle class="cls-3" cx="795.31" cy="144.21" r="80.25"/></svg>