<svg id="Layer_1_copy" data-name="Layer 1 copy" xmlns="http://www.w3.org/2000/svg" viewBox="0 0 1000 1000"><defs><style>.cls-1{fill:#5aafff;fill-rule:evenodd;}</style></defs><title>logo</title><path class="cls-1" d="M865.64,520.5c7.38-6.81,20.34-7,27.07-3.24,8.82,4.48,12.92,11.34,13.53,23.54.37,38.05,0,66.9,0,108.26V879.11c-.17,2.59-1,6.71-13.53,6.77-25.66.12-83.39,0-115,0H527.33c-11.41-1.21-12.9-14.48-6.77-20.3C635.58,752.82,750.63,633.26,865.64,520.5Z"/><path class="cls-1" d="M521.29,131.5c-6.13-5.83-4.64-19.1,6.77-20.3H778.41c31.64,0,89.38-.12,115,0,12.52.06,13.36,4.17,13.53,6.76V348c0,41.35.37,70.2,0,108.26-.61,12.2-4.71,19.06-13.53,23.54-6.73,3.78-19.69,3.56-27.07-3.24C751.36,363.82,636.31,244.26,521.29,131.5Z"/><path class="cls-1" d="M441.51,116.11c7.38-6.8,20.33-7,27.06-3.24,8.82,4.48,12.92,11.34,13.54,23.54.36,38.05,0,66.9,0,108.26V474.72c-.17,2.59-1,6.71-13.54,6.77-25.65.12-83.38,0-115,0H103.19c-11.41-1.21-12.89-14.48-6.76-20.3C211.44,348.43,326.49,228.87,441.51,116.11Z"/><path class="cls-1" d="M96.43,538.81c-6.13-5.82-4.65-19.09,6.76-20.3H353.55c31.64,0,89.37-.12,115,0,12.53.06,13.37,4.18,13.54,6.77V755.33c0,41.36.36,70.21,0,108.26-.62,12.2-4.72,19.06-13.54,23.54-6.73,3.78-19.68,3.56-27.06-3.24C326.49,771.13,211.44,651.57,96.43,538.81Z"/></svg>